<svg width="175" height="201" viewBox="0 0 175 201" fill="none" xmlns="http://www.w3.org/2000/svg">
<g clip-path="url(#clip0_3728_1880)">
<path d="M87.01 200.19C86.59 200.19 86.17 200.08 85.8 199.86L1.21 151.03C0.46 150.6 0 149.8 0 148.93V51.2601C0 50.3901 0.46 49.5901 1.21 49.1601L85.8 0.330068C86.55 -0.0999317 87.47 -0.0999317 88.22 0.330068L172.81 49.1701C173.56 49.6001 174.02 50.4001 174.02 51.2701V148.94C174.02 149.81 173.56 150.61 172.81 151.04L88.22 199.88C87.84 200.1 87.43 200.21 87.01 200.21V200.19ZM4.85 147.53L87.01 194.97L169.17 147.53V52.6601L87.01 5.22007L4.85 52.6601V147.53Z" fill="#3CF8F8"/>
<path d="M74.0391 91.5L86.9891 84.03L99.9291 91.5V106.45L86.9891 113.92L74.0391 106.45V91.5Z" fill="#3CF8F8"/>
<path d="M49.3592 126.13H24.4792C23.2492 126.13 22.7192 125.6 22.7192 124.37V122.44C22.7192 121.21 23.2492 120.68 24.4792 120.68H49.0092C52.5292 120.68 53.0492 119.27 53.0492 116.72V108.54C53.0492 105.99 52.5192 104.58 49.0092 104.58H30.3692C23.7792 104.58 20.6992 103.09 20.6992 95.26V87.08C20.6992 79.26 23.7792 77.76 30.3692 77.76H55.0692C56.2992 77.76 56.8292 78.29 56.8292 79.52V81.54C56.8292 82.77 56.2992 83.3 55.0692 83.3H30.6292C27.1092 83.3 26.5892 84.71 26.5892 87.26V95.17C26.5892 97.54 27.1192 99.13 30.3692 99.13H49.3592C55.9492 99.13 59.0292 100.62 59.0292 108.45V116.8C59.0292 124.62 55.9492 126.12 49.3592 126.12V126.13Z" fill="#1E272E"/>
<path d="M150.69 124.63C151.22 125.51 150.87 126.12 149.81 126.12H146.82C145.5 126.12 144.8 125.68 144.1 124.63L132.06 104.94H124.06V124.37C124.06 125.6 123.53 126.13 122.3 126.13H119.84C118.61 126.13 118.08 125.6 118.08 124.37V57.5601C118.08 56.3301 118.61 55.8 119.84 55.8H122.3C123.53 55.8 124.06 56.3301 124.06 57.5601V99.4001H131.88L144.36 79.27C145.06 78.21 145.77 77.78 147.08 77.78H150.07C151.12 77.78 151.48 78.4 150.95 79.27L136.8 102.13L150.69 124.63Z" fill="#1E272E"/>
<path d="M101.24 89.27L89.6002 82.55V41.34C90.7902 40.51 91.5702 39.13 91.5702 37.57C91.5702 35.04 89.5202 32.98 86.9802 32.98C84.4402 32.98 82.3902 35.03 82.3902 37.57C82.3902 39.13 83.1702 40.51 84.3602 41.34V82.55L72.7202 89.27C71.9102 89.74 71.4102 90.6 71.4102 91.53V106.48C71.4102 107.41 71.9102 108.28 72.7202 108.74L84.3602 115.46V157.16C83.1702 157.99 82.3902 159.37 82.3902 160.93C82.3902 163.46 84.4402 165.52 86.9802 165.52C89.5202 165.52 91.5702 163.47 91.5702 160.93C91.5702 159.37 90.7902 157.99 89.6002 157.16V115.46L101.24 108.74C102.05 108.27 102.55 107.41 102.55 106.48V91.53C102.55 90.6 102.05 89.73 101.24 89.27ZM97.3202 104.97L86.9902 110.94L76.6602 104.97V93.04L86.9902 87.07L97.3202 93.04V104.97Z" fill="#1E272E"/>
</g>
<defs>
<clipPath id="clip0_3728_1880">
<rect width="174.02" height="200.19" fill="white"/>
</clipPath>
</defs>
</svg>
